<svg fill="none" height="48" viewBox="0 0 37 48" width="37" xmlns="http://www.w3.org/2000/svg"><path clip-rule="evenodd" d="m24.9512 19.519c-.5124 5.3209-4.996 9.481-10.4512 9.481-1.1416 0-2.2406-.1822-3.2695-.519.5124-5.3209 4.9959-9.481 10.4511-9.481 1.1416 0 2.2406.1822 3.2696.519zm-.4565-4.2463c-.91-.1789-1.8506-.2727-2.8131-.2727-6.9259 0-12.71765 4.8558-14.15656 11.3487-2.16265-1.9233-3.52504-4.7269-3.52504-7.8487 0-5.799 4.70101-10.5 10.5-10.5 4.673 0 8.6331 3.0527 9.9947 7.2727zm4.4214 1.6582c-.7823-7.27016-6.9381-12.9309-14.4161-12.9309-8.00813 0-14.5 6.4919-14.5 14.5 0 5.3735 2.92292 10.0643 7.26556 12.5691.78231 7.2702 6.93814 12.9309 14.41604 12.9309 8.0082 0 14.5-6.4919 14.5-14.5 0-5.3735-2.9229-10.0642-7.2655-12.5691zm-.2595 4.7204c-1.4389 6.4929-7.2307 11.3487-14.1566 11.3487-.9625 0-1.903-.0938-2.813-.2727 1.3616 4.22 5.3216 7.2727 9.9946 7.2727 5.799 0 10.5-4.701 10.5-10.5 0-3.1218-1.3623-5.9254-3.525-7.8487z" fill="#7839ee" fill-rule="evenodd"/></svg>